<svg xmlns="http://www.w3.org/2000/svg" xmlns:xlink="http://www.w3.org/1999/xlink" id="Layer_1" x="0px" y="0px" viewBox="0 0 150.5 46.2" style="enable-background:new 0 0 150.5 46.2;" xml:space="preserve">
<style type="text/css">
	.st0{fill:#FFFFFF;stroke:#FFFFFF;stroke-width:0.5;stroke-miterlimit:10;}
	.st1{fill:#FFFFFF;}
</style>
<!-- <g>
	<path class="st0" d="M49.2,39.2C49.2,39.2,49.2,39.2,49.2,39.2C49.2,39.2,49.2,39.2,49.2,39.2c0-0.1,0-0.1,0-0.1c0,0,0,0,0,0   l-7.4-12.8l3.6-6.3c0,0,0,0,0,0c0,0,0,0,0,0c0,0,0,0,0,0c0,0,0,0,0,0c0,0,0,0,0,0s0,0,0,0c0,0,0,0,0,0c0,0,0,0,0,0c0,0,0,0,0,0   c0,0,0,0,0,0L34.3,0.4c0,0,0,0,0,0c0,0,0,0,0,0c0,0,0,0,0,0c0,0,0,0,0,0c0,0,0,0-0.1,0c0,0,0,0,0,0h-7.5c0,0,0,0,0,0c0,0,0,0,0,0   c0,0,0,0,0,0c0,0,0,0,0,0c0,0,0,0,0,0c0,0,0,0,0,0c0,0,0,0,0,0c0,0,0,0,0,0c0,0,0,0,0,0c0,0,0,0,0,0L19,13.2h-7.3c0,0,0,0,0,0   c0,0,0,0,0,0c0,0,0,0,0,0c0,0,0,0,0,0c0,0,0,0,0,0c0,0,0,0,0,0c0,0,0,0,0,0c0,0,0,0,0,0c0,0,0,0,0,0c0,0,0,0,0,0L0.3,32.7   c0,0,0,0,0,0c0,0,0,0,0,0.1c0,0,0,0,0,0.1c0,0,0,0,0,0.1c0,0,0,0,0,0.1c0,0,0,0,0,0L4,39.4c0,0,0,0,0,0c0,0,0,0,0,0c0,0,0,0,0,0   c0,0,0,0,0,0c0,0,0,0,0,0c0,0,0,0,0,0c0,0,0.1,0,0.1,0c0,0,0,0,0,0c0,0,0,0,0,0c0,0,0,0,0,0H19l3.6,6.3c0,0,0,0,0,0c0,0,0,0,0,0   c0,0,0,0,0,0c0,0,0,0,0,0c0,0,0,0,0,0c0,0,0,0,0,0c0,0,0.1,0,0.1,0c0,0,0,0,0,0c0,0,0,0,0,0c0,0,0,0,0,0h22.4c0,0,0.1,0,0.1,0   c0,0,0,0,0,0c0,0,0.1,0,0.1-0.1c0,0,0,0,0,0l3.7-6.5c0,0,0,0,0,0c0,0,0,0,0,0C49.2,39.3,49.2,39.3,49.2,39.2   C49.2,39.3,49.2,39.3,49.2,39.2C49.2,39.3,49.3,39.3,49.2,39.2C49.3,39.3,49.2,39.2,49.2,39.2z M45.1,45.4H23.4l3.4-5.9h21.7   L45.1,45.4z M15.7,32.8l3.4-5.9l7.1,12.4l-3.4,5.9L15.7,32.8z M48.5,39H26.8l-7.1-12.4h6.8l3.6,6.3c0,0,0,0,0,0c0,0,0,0,0,0   c0,0,0,0,0,0c0,0,0,0,0,0c0,0,0,0,0,0c0,0,0,0,0,0c0,0,0.1,0,0.1,0c0,0,0,0,0,0c0,0,0,0,0,0c0,0,0,0,0,0h7.5c0,0,0.1,0,0.1,0   c0,0,0,0,0,0c0,0,0.1,0,0.1-0.1c0,0,0,0,0,0l3.5-6L48.5,39z M0.8,32.8L11.7,14l3.4,5.9L4.2,38.7L0.8,32.8z M15.6,19.6l-3.4-5.9h7   h7.3l3.4,5.9H15.6z M30.6,20C30.6,20,30.6,20,30.6,20C30.6,20,30.6,20,30.6,20C30.6,20,30.6,20,30.6,20c0-0.1,0-0.1,0-0.1   c0,0,0,0,0,0s0,0,0,0c0,0,0,0,0,0c0,0,0,0,0,0c0,0,0,0,0,0c0,0,0,0,0,0l-3.7-6.5c0,0,0,0,0,0c0,0,0,0,0,0c0,0,0,0,0,0c0,0,0,0,0,0   c0,0,0,0-0.1,0c0,0,0,0,0,0h-7l7-12.1l10.9,18.8l-7.1,12.4l-3.4-5.9L30.6,20z M33.9,0.8l10.9,18.8H38L27.1,0.8H33.9z M37.6,32.5   h-6.8L38,20.2h6.8L37.6,32.5z M4.7,39l10.9-18.8h14.3l-3.4,5.9h-7.3c0,0,0,0,0,0c0,0,0,0,0,0c0,0,0,0,0,0c0,0,0,0,0,0c0,0,0,0,0,0   c0,0,0,0,0,0c0,0,0,0,0,0c0,0,0,0,0,0c0,0,0,0,0,0c0,0,0,0,0,0l-3.7,6.5c0,0,0,0,0,0c0,0,0,0,0,0.1c0,0,0,0,0,0.1c0,0,0,0,0,0.1   c0,0,0,0,0,0.1c0,0,0,0,0,0l3.5,6H4.7z"></path>
</g> -->
<g>
	<text x="0" y="30" class="st1" font-family="Arial, Helvetica, sans-serif" font-size="13">
      T &amp; Y Kitchen and Closet
    </text>
</g>
</svg>
